<svg xmlns="http://www.w3.org/2000/svg" version="1.1" xmlns:xlink="http://www.w3.org/1999/xlink" xmlns:svgjs="http://svgjs.dev/svgjs" viewBox="0 0 800 800"><defs><linearGradient x1="50%" y1="0%" x2="50%" y2="100%" id="ffflurry-grad" gradientTransform="rotate(270)"><stop stop-color="hsl(238, 82%, 13%)" stop-opacity="1" offset="0%"></stop><stop stop-color="hsl(265, 55%, 30%)" stop-opacity="1" offset="45%"></stop><stop stop-color="hsl(265, 55%, 60%)" stop-opacity="1" offset="100%"></stop></linearGradient></defs><rect width="100%" height="100%" fill="hsl(238, 82%, 13%)"></rect><g fill="url(#ffflurry-grad)"><rect width="204" height="3" x="206" y="678.5" rx="1.5" transform="rotate(45, 308, 680)" opacity="0.18"></rect><rect width="356" height="3" x="-98" y="341.5" rx="1.5" transform="rotate(45, 80, 343)" opacity="0.50"></rect><rect width="116" height="3" x="42" y="227.5" rx="1.5" transform="rotate(45, 100, 229)" opacity="0.79"></rect><rect width="297" height="3" x="307.5" y="406.5" rx="1.5" transform="rotate(45, 456, 408)" opacity="0.39"></rect><rect width="189" height="3" x="662.5" y="176.5" rx="1.5" transform="rotate(45, 757, 178)" opacity="0.08"></rect><rect width="184" height="3" x="125" y="465.5" rx="1.5" transform="rotate(45, 217, 467)" opacity="0.36"></rect><rect width="153" height="3" x="-40.5" y="644.5" rx="1.5" transform="rotate(45, 36, 646)" opacity="0.98"></rect><rect width="253" height="3" x="277.5" y="542.5" rx="1.5" transform="rotate(45, 404, 544)" opacity="0.21"></rect><rect width="309" height="3" x="620.5" y="664.5" rx="1.5" transform="rotate(45, 775, 666)" opacity="0.57"></rect><rect width="172" height="3" x="-47" y="123.5" rx="1.5" transform="rotate(45, 39, 125)" opacity="0.53"></rect><rect width="169" height="3" x="276.5" y="18.5" rx="1.5" transform="rotate(45, 361, 20)" opacity="0.21"></rect><rect width="106" height="3" x="198" y="604.5" rx="1.5" transform="rotate(45, 251, 606)" opacity="0.99"></rect><rect width="262" height="3" x="228" y="271.5" rx="1.5" transform="rotate(45, 359, 273)" opacity="0.07"></rect><rect width="312" height="3" x="349" y="114.5" rx="1.5" transform="rotate(45, 505, 116)" opacity="0.22"></rect><rect width="99" height="3" x="523.5" y="174.5" rx="1.5" transform="rotate(45, 573, 176)" opacity="0.22"></rect><rect width="485" height="3" x="239.5" y="31.5" rx="1.5" transform="rotate(45, 482, 33)" opacity="0.26"></rect><rect width="368" height="3" x="506" y="334.5" rx="1.5" transform="rotate(45, 690, 336)" opacity="0.60"></rect><rect width="336" height="3" x="-2" y="556.5" rx="1.5" transform="rotate(45, 166, 558)" opacity="0.60"></rect><rect width="553" height="3" x="482.5" y="278.5" rx="1.5" transform="rotate(45, 759, 280)" opacity="0.88"></rect><rect width="43" height="3" x="452.5" y="166.5" rx="1.5" transform="rotate(45, 474, 168)" opacity="0.37"></rect><rect width="438" height="3" x="-167" y="41.5" rx="1.5" transform="rotate(45, 52, 43)" opacity="0.23"></rect><rect width="287" height="3" x="628.5" y="77.5" rx="1.5" transform="rotate(45, 772, 79)" opacity="0.23"></rect><rect width="303" height="3" x="192.5" y="73.5" rx="1.5" transform="rotate(45, 344, 75)" opacity="0.66"></rect><rect width="559" height="3" x="23.5" y="523.5" rx="1.5" transform="rotate(45, 303, 525)" opacity="0.45"></rect><rect width="73" height="3" x="121.5" y="44.5" rx="1.5" transform="rotate(45, 158, 46)" opacity="0.63"></rect><rect width="176" height="3" x="335" y="67.5" rx="1.5" transform="rotate(45, 423, 69)" opacity="0.24"></rect><rect width="568" height="3" x="423" y="685.5" rx="1.5" transform="rotate(45, 707, 687)" opacity="0.29"></rect><rect width="368" height="3" x="16" y="242.5" rx="1.5" transform="rotate(45, 200, 244)" opacity="0.64"></rect><rect width="510" height="3" x="263" y="307.5" rx="1.5" transform="rotate(45, 518, 309)" opacity="0.90"></rect><rect width="675" height="3" x="25.5" y="751.5" rx="1.5" transform="rotate(45, 363, 753)" opacity="0.87"></rect><rect width="352" height="3" x="4" y="760.5" rx="1.5" transform="rotate(45, 180, 762)" opacity="0.83"></rect><rect width="321" height="3" x="-29.5" y="419.5" rx="1.5" transform="rotate(45, 131, 421)" opacity="0.09"></rect><rect width="397" height="3" x="200.5" y="169.5" rx="1.5" transform="rotate(45, 399, 171)" opacity="0.71"></rect><rect width="131" height="3" x="541.5" y="344.5" rx="1.5" transform="rotate(45, 607, 346)" opacity="0.74"></rect><rect width="420" height="3" x="420" y="719.5" rx="1.5" transform="rotate(45, 630, 721)" opacity="0.73"></rect><rect width="301" height="3" x="310.5" y="669.5" rx="1.5" transform="rotate(45, 461, 671)" opacity="0.51"></rect><rect width="401" height="3" x="439.5" y="65.5" rx="1.5" transform="rotate(45, 640, 67)" opacity="0.47"></rect><rect width="441" height="3" x="368.5" y="255.5" rx="1.5" transform="rotate(45, 589, 257)" opacity="0.12"></rect><rect width="501" height="3" x="503.5" y="410.5" rx="1.5" transform="rotate(45, 754, 412)" opacity="0.69"></rect><rect width="379" height="3" x="136.5" y="147.5" rx="1.5" transform="rotate(45, 326, 149)" opacity="0.43"></rect><rect width="420" height="3" x="346" y="83.5" rx="1.5" transform="rotate(45, 556, 85)" opacity="0.43"></rect><rect width="441" height="3" x="23.5" y="713.5" rx="1.5" transform="rotate(45, 244, 715)" opacity="0.40"></rect><rect width="118" height="3" x="-28" y="284.5" rx="1.5" transform="rotate(45, 31, 286)" opacity="0.14"></rect><rect width="445" height="3" x="326.5" y="467.5" rx="1.5" transform="rotate(45, 549, 469)" opacity="0.10"></rect><rect width="252" height="3" x="592" y="44.5" rx="1.5" transform="rotate(45, 718, 46)" opacity="0.95"></rect><rect width="609" height="3" x="-50.5" y="51.5" rx="1.5" transform="rotate(45, 254, 53)" opacity="0.35"></rect><rect width="567" height="3" x="245.5" y="607.5" rx="1.5" transform="rotate(45, 529, 609)" opacity="0.55"></rect><rect width="564" height="3" x="315" y="551.5" rx="1.5" transform="rotate(45, 597, 553)" opacity="0.52"></rect><rect width="127" height="3" x="409.5" y="504.5" rx="1.5" transform="rotate(45, 473, 506)" opacity="0.53"></rect><rect width="328" height="3" x="383" y="393.5" rx="1.5" transform="rotate(45, 547, 395)" opacity="0.34"></rect><rect width="447" height="3" x="156.5" y="373.5" rx="1.5" transform="rotate(45, 380, 375)" opacity="0.88"></rect><rect width="414" height="3" x="74" y="238.5" rx="1.5" transform="rotate(45, 281, 240)" opacity="0.96"></rect><rect width="72" height="3" x="687" y="600.5" rx="1.5" transform="rotate(45, 723, 602)" opacity="0.39"></rect><rect width="134" height="3" x="505" y="23.5" rx="1.5" transform="rotate(45, 572, 25)" opacity="0.81"></rect><rect width="190" height="3" x="574" y="247.5" rx="1.5" transform="rotate(45, 669, 249)" opacity="0.33"></rect><rect width="316" height="3" x="297" y="262.5" rx="1.5" transform="rotate(45, 455, 264)" opacity="0.54"></rect><rect width="85" height="3" x="101.5" y="270.5" rx="1.5" transform="rotate(45, 144, 272)" opacity="0.56"></rect><rect width="319" height="3" x="37.5" y="357.5" rx="1.5" transform="rotate(45, 197, 359)" opacity="0.70"></rect><rect width="71" height="3" x="5.5" y="199.5" rx="1.5" transform="rotate(45, 41, 201)" opacity="0.88"></rect><rect width="415" height="3" x="512.5" y="519.5" rx="1.5" transform="rotate(45, 720, 521)" opacity="0.48"></rect><rect width="446" height="3" x="-130" y="713.5" rx="1.5" transform="rotate(45, 93, 715)" opacity="0.23"></rect><rect width="237" height="3" x="362.5" y="761.5" rx="1.5" transform="rotate(45, 481, 763)" opacity="0.77"></rect><rect width="104" height="3" x="716" y="756.5" rx="1.5" transform="rotate(45, 768, 758)" opacity="0.56"></rect><rect width="296" height="3" x="91" y="152.5" rx="1.5" transform="rotate(45, 239, 154)" opacity="0.67"></rect><rect width="211" height="3" x="586.5" y="767.5" rx="1.5" transform="rotate(45, 692, 769)" opacity="0.21"></rect><rect width="199" height="3" x="-62.5" y="386.5" rx="1.5" transform="rotate(45, 37, 388)" opacity="0.20"></rect><rect width="73" height="3" x="92.5" y="120.5" rx="1.5" transform="rotate(45, 129, 122)" opacity="0.80"></rect><rect width="132" height="3" x="51" y="309.5" rx="1.5" transform="rotate(45, 117, 311)" opacity="0.69"></rect><rect width="693" height="3" x="300.5" y="440.5" rx="1.5" transform="rotate(45, 647, 442)" opacity="0.99"></rect><rect width="566" height="3" x="-13" y="332.5" rx="1.5" transform="rotate(45, 270, 334)" opacity="0.77"></rect><rect width="514" height="3" x="58" y="433.5" rx="1.5" transform="rotate(45, 315, 435)" opacity="0.22"></rect><rect width="182" height="3" x="61" y="178.5" rx="1.5" transform="rotate(45, 152, 180)" opacity="0.14"></rect><rect width="521" height="3" x="-183.5" y="542.5" rx="1.5" transform="rotate(45, 77, 544)" opacity="0.96"></rect><rect width="657" height="3" x="343.5" y="161.5" rx="1.5" transform="rotate(45, 672, 163)" opacity="0.72"></rect><rect width="427" height="3" x="-174.5" y="471.5" rx="1.5" transform="rotate(45, 39, 473)" opacity="0.83"></rect><rect width="257" height="3" x="436.5" y="704.5" rx="1.5" transform="rotate(45, 565, 706)" opacity="0.83"></rect><rect width="486" height="3" x="130" y="633.5" rx="1.5" transform="rotate(45, 373, 635)" opacity="0.14"></rect></g></svg>